<svg width="800" height="800" viewBox="0 0 800 800" fill="none" xmlns="http://www.w3.org/2000/svg">
<g clip-path="url(#clip0_3405_2)">
<path d="M400 204.111L96.4861 471.819C94.2361 473.847 91.3611 474.792 88.8889 476.472V733.333C88.8889 745.611 98.8333 755.555 111.111 755.555H318.375L266.667 654.43L411.264 565.542L327.708 399.958L533.333 589.93L388.736 678.819L444.181 755.555H688.889C701.167 755.555 711.111 745.611 711.111 733.333V476.528C708.75 474.917 705.944 474 703.806 472.083L400 204.111ZM792.625 372.611L711.111 300.625V111.111C711.111 98.8333 701.167 88.8888 688.889 88.8888H600C587.722 88.8888 577.778 98.8333 577.778 111.111V182.903L437.153 58.7638C426.556 49.236 413.278 44.4583 400 44.4444C386.722 44.4305 373.472 49.1805 362.917 58.7083L7.37501 372.611C-1.74999 380.819 -2.51388 394.861 5.69445 404L35.4167 437.083C43.6111 446.208 57.6667 446.972 66.8056 438.764L385.306 157.819C393.708 150.417 406.306 150.417 414.708 157.819L733.208 438.75C742.333 446.944 756.389 446.194 764.597 437.069L794.319 403.986C802.514 394.861 801.764 380.805 792.625 372.611Z" fill="#F3C302"/>
</g>
<defs>
<clipPath id="clip0_3405_2">
<rect width="800" height="800" fill="white"/>
</clipPath>
</defs>
</svg>
