<svg width="800" height="712" viewBox="0 0 800 712" fill="none" xmlns="http://www.w3.org/2000/svg">
<path d="M792.625 328.153L711.111 256.167V66.6667C711.111 60.773 708.77 55.1207 704.602 50.9532C700.435 46.7857 694.783 44.4444 688.889 44.4444H600C594.106 44.4444 588.454 46.7857 584.286 50.9532C580.119 55.1207 577.778 60.773 577.778 66.6667V138.431L437.194 14.3056C428.472 6.40278 411.847 0 400 0C388.153 0 371.583 6.40278 362.861 14.3056L7.30556 328.194C2.92475 332.621 0.324557 338.503 0 344.722C0.283846 350.154 2.2714 355.359 5.68056 359.597L35.4167 392.639C40.0511 396.798 45.8878 399.376 52.0833 400C57.4548 399.463 62.583 397.492 66.9305 394.292L89.0139 374.847V666.667C89.0139 678.454 93.6964 689.759 102.031 698.094C110.366 706.429 121.671 711.111 133.458 711.111H666.667C678.454 711.111 689.759 706.429 698.094 698.094C706.429 689.759 711.111 678.454 711.111 666.667V374.833L733.208 394.278C737.575 397.473 742.714 399.448 748.097 400C754.237 399.358 760.013 396.775 764.583 392.625L794.319 359.556C797.511 355.206 799.473 350.078 800 344.708C799.362 338.547 796.779 332.748 792.625 328.153ZM400 244.444C417.581 244.444 434.766 249.658 449.384 259.425C464.002 269.192 475.395 283.075 482.123 299.317C488.85 315.559 490.611 333.432 487.181 350.675C483.751 367.917 475.285 383.756 462.854 396.187C450.423 408.619 434.584 417.084 417.341 420.514C400.099 423.944 382.226 422.184 365.984 415.456C349.741 408.728 335.859 397.335 326.092 382.717C316.324 368.1 311.111 350.914 311.111 333.333C311.111 309.759 320.476 287.149 337.146 270.479C353.816 253.809 376.425 244.444 400 244.444ZM555.556 622.222H244.444C238.551 622.222 232.898 619.881 228.731 615.714C224.563 611.546 222.222 605.894 222.222 600C222.222 564.638 236.27 530.724 261.275 505.719C286.28 480.714 320.193 466.667 355.556 466.667H444.444C479.807 466.667 513.72 480.714 538.725 505.719C563.73 530.724 577.778 564.638 577.778 600C577.778 605.894 575.437 611.546 571.269 615.714C567.102 619.881 561.449 622.222 555.556 622.222Z" fill="#F3C302"/>
</svg>
