<svg xmlns="http://www.w3.org/2000/svg" viewBox="0 0 39.72 39.72">
<g id="Layer_2" data-name="Layer 2">
<g id="Layer_1-2" data-name="Layer 1">
<path d="M19.86,23.84a4,4,0,1,0-4-4,4,4,0,0,0,4,4Zm0,0"/>
<path d="M28.54,15V11.17H24.71l0,3.83Zm0,0"/>
<path d="M19.86,0A19.86,19.86,0,1,0,39.72,19.86,19.88,19.88,0,0,0,19.86,0Zm11.3,17.54v9.25a4.37,4.37,0,0,1-4.37,4.36H12.93a4.37,4.37,0,0,1-4.36-4.36V12.93a4.37,4.37,0,0,1,4.36-4.37H26.79a4.37,4.37,0,0,1,4.37,4.37Zm0,0"/>
<path d="M26,19.86a6.18,6.18,0,1,1-11.9-2.32H10.77v9.25A2.16,2.16,0,0,0,12.93,29H26.79A2.16,2.16,0,0,0,29,26.79V17.54H25.58A6.19,6.19,0,0,1,26,19.86Zm0,0"/>
</g>
</g>
</svg>