<svg xmlns="http://www.w3.org/2000/svg" viewBox="0 0 89.09 89.09">
<g id="Layer_2" data-name="Layer 2">
<g id="Layer_1-2" data-name="Layer 1">
<path d="M44.54,0A44.54,44.54,0,1,0,89.09,44.54,44.55,44.55,0,0,0,44.54,0ZM31.6,67.34H20.75V34.7H31.6ZM26.18,30.24H26.1c-3.64,0-6-2.51-6-5.64S22.54,19,26.25,19s6,2.44,6.07,5.64S30,30.24,26.18,30.24ZM70.72,67.34H59.87V49.88c0-4.39-1.57-7.38-5.5-7.38a5.94,5.94,0,0,0-5.57,4,7.43,7.43,0,0,0-.36,2.65V67.34H37.6s.14-29.58,0-32.64H48.45v4.62a10.77,10.77,0,0,1,9.78-5.39c7.14,0,12.49,4.66,12.49,14.69Zm0,0"/>
</g>
</g>
</svg>