<svg xmlns="http://www.w3.org/2000/svg" viewBox="0 0 80 80">
<g id="Layer_2" data-name="Layer 2">
<g id="Layer_1-2" data-name="Layer 1">
<path d="M35,47.49,48,40,35,32.51Zm0,0"/>
<path d="M40,0A40,40,0,1,0,80,40,40,40,0,0,0,40,0ZM65,40s0,8.11-1,12a6.26,6.26,0,0,1-4.41,4.41c-3.91,1-19.56,1-19.56,1s-15.61,0-19.56-1.07A6.26,6.26,0,0,1,16,52c-1-3.87-1-12-1-12s0-8.11,1-12a6.39,6.39,0,0,1,4.41-4.45c3.91-1,19.56-1,19.56-1s15.65,0,19.56,1.07A6.26,6.26,0,0,1,64,28C65,31.89,65,40,65,40Zm0,0"/>
</g>
</g>
</svg>